<svg viewBox="0 0 20 20" xmlns="http://www.w3.org/2000/svg" version="1.1"><g id="surface1"><path style=" stroke:none;fill-rule:nonzero;fill:rgb(42.745098%,78.431373%,16.470588%);fill-opacity:1;" d="M 19.347656 20 L 0.652344 20 C 0.292969 20 0 19.707031 0 19.347656 L 0 0.652344 C 0 0.292969 0.292969 0 0.652344 0 L 19.347656 0 C 19.707031 0 20 0.292969 20 0.652344 L 20 19.347656 C 20 19.707031 19.707031 20 19.347656 20 Z M 19.347656 20 "/><path style=" stroke:none;fill-rule:nonzero;fill:rgb(38.039216%,70.196078%,14.509804%);fill-opacity:1;" d="M 19.347656 0 L 10 0 L 10 20 L 19.347656 20 C 19.707031 20 20 19.707031 20 19.347656 L 20 0.652344 C 20 0.292969 19.707031 0 19.347656 0 Z M 19.347656 0 "/><path style=" stroke:none;fill-rule:nonzero;fill:rgb(100%,100%,100%);fill-opacity:1;" d="M 7.175781 17.390625 L 4.566406 17.390625 C 4.207031 17.390625 3.914062 17.097656 3.914062 16.738281 L 3.914062 3.261719 C 3.914062 2.902344 4.207031 2.609375 4.566406 2.609375 L 7.175781 2.609375 C 7.535156 2.609375 7.824219 2.902344 7.824219 3.261719 C 7.824219 3.621094 7.535156 3.914062 7.175781 3.914062 L 5.21875 3.914062 L 5.21875 16.085938 L 7.175781 16.085938 C 7.535156 16.085938 7.824219 16.378906 7.824219 16.738281 C 7.824219 17.097656 7.535156 17.390625 7.175781 17.390625 Z M 7.175781 17.390625 "/><path style=" stroke:none;fill-rule:nonzero;fill:rgb(100%,90.196078%,70.196078%);fill-opacity:1;" d="M 15.433594 17.390625 L 12.824219 17.390625 C 12.464844 17.390625 12.175781 17.097656 12.175781 16.738281 C 12.175781 16.378906 12.464844 16.085938 12.824219 16.085938 L 14.78125 16.085938 L 14.78125 3.914062 L 12.824219 3.914062 C 12.464844 3.914062 12.175781 3.621094 12.175781 3.261719 C 12.175781 2.902344 12.464844 2.609375 12.824219 2.609375 L 15.433594 2.609375 C 15.792969 2.609375 16.085938 2.902344 16.085938 3.261719 L 16.085938 16.738281 C 16.085938 17.097656 15.792969 17.390625 15.433594 17.390625 Z M 15.433594 17.390625 "/></g></svg>